Coordinates
version=1
nRows=13
nColumns=40
inDegrees=yes

Units are S.I. units (second, meters, Newtons, ...)
If the header above contains a line with 'inDegrees', this indicates whether rotational values are in degrees (yes) or radians (no).

endheader
time	pelvis_tilt	pelvis_list	pelvis_rotation	pelvis_tx	pelvis_ty	pelvis_tz	hip_flexion_r	hip_adduction_r	hip_rotation_r	knee_angle_r	knee_angle_r_beta	ankle_angle_r	subtalar_angle_r	mtp_angle_r	hip_flexion_l	hip_adduction_l	hip_rotation_l	knee_angle_l	knee_angle_l_beta	ankle_angle_l	subtalar_angle_l	mtp_angle_l	lumbar_extension	lumbar_bending	lumbar_rotation	arm_flex_r	arm_add_r	arm_rot_r	elbow_flex_r	pro_sup_r	wrist_flex_r	wrist_dev_r	arm_flex_l	arm_add_l	arm_rot_l	elbow_flex_l	pro_sup_l	wrist_flex_l	wrist_dev_l
      1.81000000	      1.64857998	      8.45261582	    -86.38586554	      0.28690145	      0.91652238	     -0.09877196	     31.89858663	     -0.67144168	    -10.59454578	      1.74973896	      0.03053871	      1.08572578	      0.00000000	      0.00000000	     -2.14084471	      6.74344851	      3.79533888	      4.10245426	      0.07160133	      7.92243839	     -0.00000000	      0.00000000	      0.78445496	     -3.32762415	     -7.56365790	      0.00000000	      0.00000000	      0.00000000	      0.00000000	      0.00000000	     -0.00000000	      0.00000000	      0.00000000	      0.00000000	     -0.00000000	      0.00000000	      0.00000000	      0.00000000	     -0.00000000
      1.82000000	      1.62411587	      8.65396961	    -86.28030908	      0.28676091	      0.91524395	     -0.09019620	     32.11048472	     -0.57347034	    -10.86250977	      1.65641266	      0.02890985	      1.05749076	      0.00000000	      0.00000000	     -2.55829120	      6.65576916	      3.74721618	      4.03759121	      0.07046926	      8.31936776	      0.00000000	      0.00000000	      1.06967229	     -3.28587917	     -7.54709120	      0.00000000	      0.00000000	      0.00000000	      0.00000000	      0.00000000	      0.00000000	      0.00000000	      0.00000000	      0.00000000	      0.00000000	      0.00000000	      0.00000000	      0.00000000	      0.00000000
      1.83000000	      1.43870871	      8.73241791	    -86.16226336	      0.28650786	      0.91416970	     -0.08145927	     32.21447961	     -0.33100587	    -11.07334048	      1.77564050	      0.03099077	      0.70773989	      0.00000000	      0.00000000	     -3.10677674	      6.38416832	      3.99413520	      3.98460073	      0.06954440	      8.75355123	      0.00000000	      0.00000000	      1.21301742	     -3.03607973	     -7.59091432	      0.00000000	      0.00000000	      0.00000000	      0.00000000	      0.00000000	      0.00000000	      0.00000000	      0.00000000	      0.00000000	      0.00000000	      0.00000000	      0.00000000	      0.00000000	      0.00000000
      1.84000000	      1.23163139	      8.61240606	    -85.97353762	      0.28637819	      0.91345760	     -0.07251479	     32.04461775	     -0.11223128	    -11.39350942	      1.94840729	      0.03400612	      0.20136119	      0.00000000	      0.00000000	     -3.88097980	      6.07646659	      4.35970019	      3.92765255	      0.06855047	      8.98722695	      0.00000000	      0.00000000	      1.14140049	     -2.73187414	     -7.67408440	      0.00000000	      0.00000000	      0.00000000	      0.00000000	      0.00000000	      0.00000000	      0.00000000	      0.00000000	      0.00000000	      0.00000000	      0.00000000	      0.00000000	      0.00000000	      0.00000000
      1.85000000	      1.17910192	      8.77476320	    -85.84167048	      0.28614718	      0.91238617	     -0.06373055	     32.19469169	     -0.05361250	    -11.36565055	      2.26037981	      0.03945107	      0.06531404	      0.00000000	     -0.00000000	     -4.13311528	      5.94084244	      4.35492564	      4.27698723	      0.07464751	      8.91410330	     -0.00000000	     -0.00000000	      1.38330021	     -2.64526816	     -7.77330434	      0.00000000	      0.00000000	     -0.00000000	      0.00000000	      0.00000000	     -0.00000000	      0.00000000	      0.00000000	      0.00000000	     -0.00000000	      0.00000000	      0.00000000	     -0.00000000	     -0.00000000
      1.86000000	      0.79901815	      8.70677834	    -85.72815140	      0.28572054	      0.91168426	     -0.05448325	     32.15196395	      0.33142033	    -11.77826894	      2.81248527	      0.04908713	     -0.79885945	      0.00000000	      0.00000000	     -4.83585618	      5.42594152	      4.49890635	      4.23329543	      0.07388494	      9.43446080	      0.00000000	      0.00000000	      1.42019054	     -2.15569244	     -7.76318868	      0.00000000	      0.00000000	      0.00000000	      0.00000000	      0.00000000	      0.00000000	      0.00000000	      0.00000000	      0.00000000	      0.00000000	      0.00000000	      0.00000000	      0.00000000	      0.00000000
      1.87000000	      0.55472019	      8.78381482	    -85.63196803	      0.28529226	      0.91087117	     -0.04535115	     32.24348677	      0.57528419	    -11.82101526	      3.42624092	      0.05979918	     -1.36650185	      0.00000000	      0.00000000	     -5.20338908	      5.06231335	      4.50669142	      4.52577373	      0.07898965	      9.55388284	      0.00000000	      0.00000000	      1.60632523	     -1.83325278	     -7.81149225	      0.00000000	      0.00000000	      0.00000000	      0.00000000	      0.00000000	      0.00000000	      0.00000000	      0.00000000	      0.00000000	      0.00000000	      0.00000000	      0.00000000	      0.00000000	      0.00000000
      1.88000000	      0.31513757	      8.83909622	    -85.53212897	      0.28482953	      0.91015894	     -0.03609778	     32.30149876	      0.80196929	    -11.85356001	      4.12568638	      0.07200681	     -1.96548594	      0.00000000	      0.00000000	     -5.53277181	      4.69679065	      4.52029880	      4.93984336	      0.08621653	      9.57380375	      0.00000000	      0.00000000	      1.77600830	     -1.52260923	     -7.86018370	      0.00000000	      0.00000000	      0.00000000	      0.00000000	      0.00000000	      0.00000000	      0.00000000	      0.00000000	      0.00000000	      0.00000000	      0.00000000	      0.00000000	      0.00000000	      0.00000000
      1.89000000	      0.06155484	      8.85826257	    -85.44559017	      0.28430769	      0.90959829	     -0.02673228	     32.32437178	      1.03855956	    -11.93289856	      4.91825220	      0.08583969	     -2.63859905	      0.00000000	      0.00000000	     -5.85161743	      4.30362021	      4.49249293	      5.43380110	      0.09483772	      9.55004079	      0.00000000	      0.00000000	      1.91792145	     -1.19139179	     -7.87826859	      0.00000000	      0.00000000	      0.00000000	      0.00000000	      0.00000000	      0.00000000	      0.00000000	      0.00000000	      0.00000000	      0.00000000	      0.00000000	      0.00000000	      0.00000000	      0.00000000
      1.90000000	     -0.20365539	      8.83743402	    -85.36608992	      0.28374964	      0.90918459	     -0.01726680	     32.31354116	      1.28448612	    -12.03269594	      5.80890916	      0.10138459	     -3.36007905	      0.00000000	      0.00000000	     -6.14416268	      3.88917465	      4.41891034	      6.05304956	      0.10564564	      9.43403163	      0.00000000	      0.00000000	      2.01469234	     -0.84863144	     -7.88401982	      0.00000000	      0.00000000	      0.00000000	      0.00000000	      0.00000000	      0.00000000	      0.00000000	      0.00000000	      0.00000000	      0.00000000	      0.00000000	      0.00000000	      0.00000000	      0.00000000
      1.91000000	     -0.43892215	      8.76278225	    -85.31621490	      0.28312739	      0.90896826	     -0.00770162	     32.22012218	      1.49821249	    -12.32924964	      6.71380498	      0.11717800	     -4.05055069	      0.00000000	      0.00000000	     -6.39782749	      3.47868222	      4.13569344	      6.83535934	      0.11929953	      9.29556106	      0.00000000	      0.00000000	      2.06190873	     -0.52444873	     -7.86880011	      0.00000000	      0.00000000	      0.00000000	      0.00000000	      0.00000000	      0.00000000	      0.00000000	      0.00000000	      0.00000000	      0.00000000	      0.00000000	      0.00000000	      0.00000000	      0.00000000
      1.92000000	     -0.64647647	      8.74836412	    -85.25464447	      0.28253688	      0.90879682	      0.00187352	     32.16323781	      1.69905306	    -12.18922157	      7.62929033	      0.13315624	     -4.60008222	      0.00000000	      0.00000000	     -6.54125906	      3.11410435	      4.14701062	      7.69422744	      0.13428960	      8.86029829	      0.00000000	      0.00000000	      2.18044723	     -0.23988327	     -7.89923081	      0.00000000	      0.00000000	      0.00000000	      0.00000000	      0.00000000	      0.00000000	      0.00000000	      0.00000000	      0.00000000	      0.00000000	      0.00000000	      0.00000000	      0.00000000	      0.00000000
      1.93000000	     -0.84030851	      8.64706097	    -85.24037596	      0.28181874	      0.90882312	      0.01157874	     32.05916776	      1.88384296	    -12.37860911	      8.69103445	      0.15168717	     -5.20264711	      0.00000000	      0.00000000	     -6.61556595	      2.71756704	      3.73278585	      8.83821071	      0.15425588	      8.37674918	      0.00000000	      0.00000000	      2.20624691	      0.02841726	     -7.84503332	      0.00000000	      0.00000000	      0.00000000	      0.00000000	      0.00000000	      0.00000000	      0.00000000	      0.00000000	      0.00000000	      0.00000000	      0.00000000	      0.00000000	      0.00000000	      0.00000000
